<svg version="1.1" xmlns="http://www.w3.org/2000/svg" xmlns:xlink="http://www.w3.org/1999/xlink" x="0" y="0" width="760" height="888" viewBox="0, 0, 760, 888">
  <g id="japan">
    <path d="M704,0 L760,0 L760,56 L704,56 L704,0 z" fill="#c7c7c7" id="hokkaido"/>
    <path d="M704,96 L760,96 L760,152 L704,152 L704,96 z" fill="#c7c7c7" id="aomori"/>
    <path d="M704,160 L760,160 L760,216 L704,216 L704,160 z" fill="#c7c7c7" id="iwate"/>
    <path d="M704,224 L760,224 L760,280 L704,280 L704,224 z" fill="#c7c7c7" id="miyagi"/>
    <path d="M704,288 L760,288 L760,344 L704,344 L704,288 z" fill="#c7c7c7" id="fukushima"/>
    <path d="M640,160 L696,160 L696,216 L640,216 L640,160 z" fill="#c7c7c7" id="akita"/>
    <path d="M640,224 L696,224 L696,280 L640,280 L640,224 z" fill="#c7c7c7" id="yamagata"/>
    <path d="M640,288 L696,288 L696,344 L640,344 L640,288 z" fill="#c7c7c7" id="nigata"/>
    <path d="M704,352 L760,352 L760,408 L704,408 L704,352 z" fill="#c7c7c7" id="tochigi"/>
    <path d="M704,416 L760,416 L760,472 L704,472 L704,416 z" fill="#c7c7c7" id="ibaraki"/>
    <path d="M704,480 L760,480 L760,536 L704,536 L704,480 z" fill="#c7c7c7" id="chiba"/>
    <path d="M640,544 L696,544 L696,600 L640,600 L640,544 z" fill="#c7c7c7" id="kanagawa"/>
    <path d="M640,352 L696,352 L696,408 L640,408 L640,352 z" fill="#c7c7c7" id="gunma"/>
    <path d="M640,416 L696,416 L696,472 L640,472 L640,416 z" fill="#c7c7c7" id="saitama"/>
    <path d="M640,480 L696,480 L696,536 L640,536 L640,480 z" fill="#c7c7c7" id="tokyo"/>
    <path d="M576,544 L632,544 L632,600 L576,600 L576,544 z" fill="#c7c7c7" id="shizuoka"/>
    <path d="M576,352 L632,352 L632,408 L576,408 L576,352 z" fill="#c7c7c7" id="toyama"/>
    <path d="M576,416 L632,416 L632,472 L576,472 L576,416 z" fill="#c7c7c7" id="yamanashi"/>
    <path d="M576,480 L632,480 L632,536 L576,536 L576,480 z" fill="#c7c7c7" id="nagano"/>
    <path d="M512,416 L568,416 L568,472 L512,472 L512,416 z" fill="#c7c7c7" id="fukui"/>
    <path d="M512,480 L568,480 L568,536 L512,536 L512,480 z" fill="#c7c7c7" id="shiga"/>
    <path d="M512,544 L568,544 L568,600 L512,600 L512,544 z" fill="#c7c7c7" id="mie"/>
    <path d="M448,480 L504,480 L504,536 L448,536 L448,480 z" fill="#c7c7c7" id="kyoto"/>
    <path d="M448,544 L504,544 L504,600 L448,600 L448,544 z" fill="#c7c7c7" id="nara"/>
    <path d="M448,608 L504,608 L504,664 L448,664 L448,608 z" fill="#c7c7c7" id="wakayama"/>
    <path d="M384,544 L440,544 L440,600 L384,600 L384,544 z" fill="#c7c7c7" id="osaka"/>
    <path d="M384,480 L440,480 L440,536 L384,536 L384,480 z" fill="#c7c7c7" id="hyogo"/>
    <path d="M320,544 L376,544 L376,600 L320,600 L320,544 z" fill="#c7c7c7" id="okayama"/>
    <path d="M320,480 L376,480 L376,536 L320,536 L320,480 z" fill="#c7c7c7" id="tottori"/>
    <path d="M256,480 L312,480 L312,536 L256,536 L256,480 z" fill="#c7c7c7" id="shimane"/>
    <path d="M256,544 L312,544 L312,600 L256,600 L256,544 z" fill="#c7c7c7" id="hiroshima"/>
    <path d="M192,544 L248,544 L248,600 L192,600 L192,544 z" fill="#c7c7c7" id="yamaguchi"/>
    <path d="M320,704 L376,704 L376,760 L320,760 L320,704 z" fill="#c7c7c7" id="tokushima"/>
    <path d="M320,640 L376,640 L376,696 L320,696 L320,640 z" fill="#c7c7c7" id="kagawa"/>
    <path d="M256,704 L312,704 L312,760 L256,760 L256,704 z" fill="#c7c7c7" id="kochi"/>
    <path d="M256,640 L312,640 L312,696 L256,696 L256,640 z" fill="#c7c7c7" id="ehime"/>
    <path d="M160,704 L216,704 L216,760 L160,760 L160,704 z" fill="#c7c7c7" id="miyazaki"/>
    <path d="M160,640 L216,640 L216,696 L160,696 L160,640 z" fill="#c7c7c7" id="oita"/>
    <path d="M96,704 L152,704 L152,760 L96,760 L96,704 z" fill="#c7c7c7" id="kumamoto"/>
    <path d="M96,640 L152,640 L152,696 L96,696 L96,640 z" fill="#c7c7c7" id="saga"/>
    <path d="M96,576 L152,576 L152,632 L96,632 L96,576 z" fill="#c7c7c7" id="fukuoka"/>
    <path d="M32,640 L88,640 L88,696 L32,696 L32,640 z" fill="#c7c7c7" id="nagasaki"/>
    <path d="M96,768 L152,768 L152,824 L96,824 L96,768 z" fill="#c7c7c7" id="kagoshima"/>
    <path d="M0,832 L56,832 L56,888 L0,888 L0,832 z" fill="#c7c7c7" id="okinawa"/>
  </g>
</svg>
